<svg width="62" height="12" viewBox="0 0 62 12" fill="none" xmlns="http://www.w3.org/2000/svg">
<path d="M7.64986 3C7.32599 1.21023 5.89418 0.153409 4.13849 0.153409C1.90554 0.153409 0.286222 1.875 0.286222 4.63636C0.286222 7.39773 1.90554 9.11932 4.13849 9.11932C5.89418 9.11932 7.32599 8.0625 7.64986 6.27273H6.59304C6.33736 7.48295 5.29759 8.13068 4.13849 8.13068C2.55327 8.13068 1.30895 6.90341 1.30895 4.63636C1.30895 2.36932 2.55327 1.14205 4.13849 1.14205C5.29759 1.14205 6.33736 1.78977 6.59304 3H7.64986ZM11.8803 9.13636C13.6531 9.13636 14.8462 7.78977 14.8462 5.76136C14.8462 3.71591 13.6531 2.36932 11.8803 2.36932C10.1076 2.36932 8.91442 3.71591 8.91442 5.76136C8.91442 7.78977 10.1076 9.13636 11.8803 9.13636ZM11.8803 8.23295C10.5337 8.23295 9.9201 7.07386 9.9201 5.76136C9.9201 4.44886 10.5337 3.27273 11.8803 3.27273C13.2269 3.27273 13.8406 4.44886 13.8406 5.76136C13.8406 7.07386 13.2269 8.23295 11.8803 8.23295ZM16.8619 2.45455H15.7028L17.7823 5.72727L15.7028 9H16.8619L18.43 6.46023L19.9982 9H21.1573L19.0437 5.72727L21.1573 2.45455H19.9982L18.43 5.13068L16.8619 2.45455ZM22.5923 11.4545H23.598V7.99432H23.6832C23.9048 8.35227 24.331 9.13636 25.5923 9.13636C27.2287 9.13636 28.3707 7.82386 28.3707 5.74432C28.3707 3.68182 27.2287 2.36932 25.5753 2.36932C24.2969 2.36932 23.9048 3.15341 23.6832 3.49432H23.5639V2.45455H22.5923V11.4545ZM23.581 5.72727C23.581 4.26136 24.2287 3.27273 25.456 3.27273C26.7344 3.27273 27.3651 4.34659 27.3651 5.72727C27.3651 7.125 26.7173 8.23295 25.456 8.23295C24.2457 8.23295 23.581 7.21023 23.581 5.72727ZM31.831 9.15341C32.973 9.15341 33.5696 8.53977 33.7741 8.11364H33.8253V9H34.831V4.6875C34.831 2.60795 33.2457 2.36932 32.4105 2.36932C31.4219 2.36932 30.2969 2.71023 29.7855 3.90341L30.7401 4.24432C30.9616 3.76705 31.4858 3.25568 32.4446 3.25568C33.3693 3.25568 33.8253 3.74574 33.8253 4.58523V4.61932C33.8253 5.10511 33.331 5.0625 32.1378 5.21591C30.9233 5.37358 29.598 5.64205 29.598 7.14205C29.598 8.42045 30.5866 9.15341 31.831 9.15341ZM31.9844 8.25C31.1832 8.25 30.6037 7.89205 30.6037 7.19318C30.6037 6.42614 31.3026 6.1875 32.0866 6.08523C32.5128 6.03409 33.6548 5.91477 33.8253 5.71023V6.63068C33.8253 7.44886 33.1776 8.25 31.9844 8.25ZM37.6722 2.45455H36.6665V9H37.6722V6.20455H40.8086V9H41.8143V2.45455H40.8086V5.26705H37.6722V2.45455ZM44.6566 7.51705V2.45455H43.6509V9H44.8271L47.9634 3.9375V9H48.9691V2.45455H47.81L44.6566 7.51705ZM49.9205 3.39205H52.0852V9H53.0909V3.39205H55.2386V2.45455H49.9205V3.39205ZM57.7113 4.82386V2.45455H56.7056V9H59.4499C60.984 9 61.8192 8.0625 61.8192 6.88636C61.8192 5.69318 60.984 4.82386 59.4499 4.82386H57.7113ZM57.7113 5.76136H59.4499C60.2468 5.76136 60.8136 6.24716 60.8136 6.9375C60.8136 7.59801 60.2468 8.0625 59.4499 8.0625H57.7113V5.76136Z" fill="black"/>
</svg>
